<svg xmlns="http://www.w3.org/2000/svg" xmlns:xlink="http://www.w3.org/1999/xlink" width="131" height="306" version="1.1" viewBox="0 0 131 306"><desc>Created with Sketch.</desc><defs><path id="path-1" d="M1.0243566,5.84271525 L44.8586585,72.3563383 C47.0592518,75.6954912 48.9902501,81.6344304 49.1725581,85.640982 L50.3297171,111.071669 C50.5116248,115.069422 53.9011003,118.310241 57.90452,118.310241 L60.9778404,118.310241 C64.9793809,118.310241 68.2232704,115.060101 68.2232704,111.060025 L68.2232704,85.0066021 C68.2232704,81.002418 70.0509203,75.0711647 72.299958,71.7668324 L120.874079,0.40073818 L0.419054973,0.40073818 L1.0243566,5.84271525 Z"/></defs><g id="Page-1" fill="none" fill-rule="evenodd" stroke="none" stroke-width="1"><g id="Illustrations" transform="translate(-158.000000, -73.000000)"><g id="Filtering" transform="translate(48.000000, 46.000000)"><g id="Funnel" transform="translate(110.000000, 128.000000)"><g id="Rectangle-46-Copy" transform="translate(6.607800, 36.079456)"><mask id="mask-2" fill="#fff"><use xlink:href="#path-1"/></mask><use id="Mask" fill="#64B5F6" xlink:href="#path-1"/><rect id="Rectangle-46" width="79.383" height="146.42" x="58.343" y="-17.842" fill="#508FC2" fill-opacity=".482" mask="url(#mask-2)"/></g><path id="Path-45-Copy" fill="#64B5F6" d="M1.21310203,25.079456 L0.6078004,34.1494178 C0.6078004,34.1494178 1.21310203,37.7774025 7.87141993,42.0100513 C14.5297378,46.2427002 99.2719657,65.5919519 129.537047,34.7540819 L129.537047,25.079456 L1.21310203,25.079456 Z"/><ellipse id="Oval-14-Copy" cx="65.678" cy="22.452" fill="#1E88E5" rx="65.07" ry="22.373"/></g><g id="Items" transform="translate(122.000000, 26.000000)"><rect id="Rectangle-41-Copy-16" width="13.922" height="14.512" x="23.608" y="30.079" fill="#7EDFEA" rx="4.83"/><rect id="Rectangle-41-Copy-17" width="13.922" height="14.512" x="81.425" y="43.798" fill="#FF7FAA" rx="4.83" transform="translate(88.386048, 51.053564) rotate(-17.000000) translate(-88.386048, -51.053564)"/><rect id="Rectangle-41-Copy-18" width="13.922" height="14.512" x="82.697" y="78.852" fill="#FFAC00" rx="4.83" transform="translate(89.657834, 86.107655) rotate(-48.000000) translate(-89.657834, -86.107655)"/><rect id="Rectangle-41-Copy-19" width="13.922" height="14.512" x="54.395" y="2.666" fill="#64B5F6" rx="4.83" transform="translate(61.356115, 9.921618) rotate(32.000000) translate(-61.356115, -9.921618)"/><rect id="Rectangle-41-Copy-20" width="13.922" height="14.512" x="46.395" y="265.666" fill="#FFAC00" rx="4.83" transform="translate(53.356115, 272.921618) rotate(32.000000) translate(-53.356115, -272.921618)"/><rect id="Rectangle-41-Copy-21" width="13.922" height="14.512" x="51.675" y="42.874" fill="#69F0AE" rx="4.83" transform="translate(58.635999, 50.129489) rotate(42.000000) translate(-58.635999, -50.129489)"/><rect id="Rectangle-41-Copy-22" width="13.922" height="14.512" x="3.675" y="69.874" fill="#DDE775" rx="4.83" transform="translate(10.635999, 77.129489) rotate(42.000000) translate(-10.635999, -77.129489)"/><rect id="Rectangle-41-Copy-23" width="13.922" height="14.512" x="33.509" y="69.875" fill="#EB80FC" rx="4.83" transform="translate(40.470293, 77.131351) rotate(18.000000) translate(-40.470293, -77.131351)"/><rect id="Rectangle-41-Copy-24" width="13.922" height="14.512" x="13.437" y="98.7" fill="#EA80FC" rx="4.83" transform="translate(20.397644, 105.956039) rotate(-33.000000) translate(-20.397644, -105.956039)"/><rect id="Rectangle-41-Copy-25" width="13.922" height="14.512" x="55.249" y="93.634" fill="#65FEDA" rx="4.83" transform="translate(62.209563, 100.889816) rotate(-15.000000) translate(-62.209563, -100.889816)"/><rect id="Rectangle-41-Copy-26" width="6.942" height="7.236" x="43.426" y="282.854" fill="#65FEDA" rx="3.471" transform="translate(46.896776, 286.472441) rotate(-15.000000) translate(-46.896776, -286.472441)"/><rect id="Rectangle-41-Copy-27" width="6.942" height="7.236" x="56.426" y="298.854" fill="#EB80FC" rx="3.471" transform="translate(59.896776, 302.472441) rotate(-15.000000) translate(-59.896776, -302.472441)"/><path id="Rectangle-41-Copy-28" fill="#FDD834" d="M31.6579981,143.543865 C31.6579981,140.875079 33.8333009,138.7116 36.5076723,138.7116 L40.7302614,138.7116 C43.4086625,138.7116 45.5799356,140.878809 45.5799356,143.549697 L44.9114543,148.659762" transform="translate(38.618967, 143.685681) rotate(-15.000000) translate(-38.618967, -143.685681)"/><rect id="Rectangle-41-Copy-29" width="13.922" height="14.512" x="62.249" y="117.634" fill="#EA80FC" rx="4.83" transform="translate(69.209563, 124.889816) rotate(-15.000000) translate(-69.209563, -124.889816)"/><rect id="Rectangle-41-Copy-30" width="13.922" height="14.512" x="84.249" y="116.634" fill="#69F0AE" rx="4.83" transform="translate(91.209563, 123.889816) rotate(-15.000000) translate(-91.209563, -123.889816)"/><rect id="Rectangle-41-Copy-31" width="13.922" height="14.512" x="28.249" y="116.634" fill="#FF80AB" rx="4.83" transform="translate(35.209563, 123.889816) rotate(-15.000000) translate(-35.209563, -123.889816)"/></g></g></g></g></svg>